# xmcd
#
# Track frame offsets: 
#        150
#        19398
#        36495
#        55219
#        77830
#        92531
#        105681
#        118485
#        143462
#
# Disc length: 2032 seconds
#
# Revision: 0
# Processed by: cddbd v1.5.2PL0 Copyright (c) Steve Scherf et al.
# Submitted via: ExactAudioCopy v1.0b3
#
DISCID=7807ee09
DTITLE=Jagódka - Blueswomanka
DYEAR=2015
DGENRE=Blues
TTITLE0=Wiem To Na Pewno
TTITLE1=Gdy Tylko Czegoś Pragniesz
TTITLE2=Answer
TTITLE3=Wołam Ciebie Zostań Ze Mną Tu
TTITLE4=To Jest Funky
TTITLE5=Cudem Jest
TTITLE6=Kocham R'n'roll
TTITLE7=Warszawski Kurz
TTITLE8=Kołysanka Dla Jalo
EXTD=
EXTT0=
EXTT1=
EXTT2=
EXTT3=
EXTT4=
EXTT5=
EXTT6=
EXTT7=
EXTT8=
PLAYORDER=
